<?xml version="1.0" encoding="UTF-8" standalone="no"?>
<!-- Created with Inkscape (http://www.inkscape.org/) -->

<svg
   xmlns:dc="http://purl.org/dc/elements/1.1/"
   xmlns:cc="http://creativecommons.org/ns#"
   xmlns:rdf="http://www.w3.org/1999/02/22-rdf-syntax-ns#"
   xmlns:svg="http://www.w3.org/2000/svg"
   xmlns="http://www.w3.org/2000/svg"
   xmlns:sodipodi="http://sodipodi.sourceforge.net/DTD/sodipodi-0.dtd"
   xmlns:inkscape="http://www.inkscape.org/namespaces/inkscape"
   width="140mm"
   height="145mm"
   viewBox="0 0 140 145"
   version="1.1"
   id="svg8"
   sodipodi:docname="SCHRODINGERS-BOX.svg"
   inkscape:version="1.0 (4035a4fb49, 2020-05-01)">
  <defs
     id="defs2">
    <clipPath
       id="clipPath849"
       clipPathUnits="userSpaceOnUse">
      <path
         id="path847"
         d="M 0,595.276 H 841.89 V 0 H 0 Z" />
    </clipPath>
  </defs>
  <sodipodi:namedview
     id="base"
     pagecolor="#ffffff"
     bordercolor="#666666"
     borderopacity="1.0"
     inkscape:pageopacity="0.0"
     inkscape:pageshadow="2"
     inkscape:zoom="15.446626"
     inkscape:cx="109.1278"
     inkscape:cy="100.71649"
     inkscape:document-units="mm"
     inkscape:current-layer="g845"
     inkscape:document-rotation="0"
     showgrid="false"
     inkscape:pagecheckerboard="true"
     inkscape:window-width="1834"
     inkscape:window-height="1057"
     inkscape:window-x="-8"
     inkscape:window-y="-8"
     inkscape:window-maximized="1">
    <inkscape:grid
       type="xygrid"
       id="grid2025" />
  </sodipodi:namedview>
  <metadata
     id="metadata5">
    <rdf:RDF>
      <cc:Work
         rdf:about="">
        <dc:format>image/svg+xml</dc:format>
        <dc:type
           rdf:resource="http://purl.org/dc/dcmitype/StillImage" />
        <dc:title></dc:title>
      </cc:Work>
    </rdf:RDF>
  </metadata>
  <g
     inkscape:label="Layer 1"
     inkscape:groupmode="layer"
     id="layer1">
    <g
       transform="matrix(0.35277777,0,0,-0.35277777,-73.937374,175.40661)"
       clip-path="url(#clipPath849)"
       id="g845"
       style="display:inline">
      <g
         transform="translate(540.5654,338.1067)"
         id="g851"
         inkscape:label="cat_white">
        <path
           id="path853"
           style="fill:none;stroke:#000000;stroke-width:6.282;stroke-linecap:round;stroke-linejoin:round;stroke-miterlimit:10;stroke-dasharray:none;stroke-opacity:1"
           d="m 0,0 c 13.473,12.421 8.55,33.522 8.55,33.522 36.283,32.199 12.853,47.231 -7.537,109.63 -4.73,-13.199 -8.493,-22.967 -11.319,-29.242 -14.364,1.787 -46.244,1.79 -60.616,0 -2.825,6.275 -6.59,16.043 -11.318,29.242 -20.338,-62.232 -43.692,-77.708 -7.821,-109.735 -6.585,-9.601 -14.105,-21.342 -22.58,-35.959 -19.802,1.25 -39.452,-10.383 -58.933,-34.905" />
      </g>
      <g
         transform="translate(450.6494,306.97233)"
         id="g855"
         inkscape:label="cat_black">
        <path
           id="path857"
           style="fill:#000000;fill-opacity:1;fill-rule:nonzero;stroke:#1d1d1b;stroke-width:8.37637814;stroke-linecap:round;stroke-linejoin:round;stroke-miterlimit:10;stroke-dasharray:none;stroke-opacity:1"
           d="m -173.67124,181.60336 c -20.391,-62.4 -43.82109,-77.43138 -7.53809,-109.630382 0.759,-14.376998 2.63243,-27.464858 5.33643,-39.484861 L -43.438231,-24.401953 5.7297582,-3.1074849 C -13.751245,21.413518 -40.215402,37.157527 -60.018402,35.908529 c -8.475001,14.617996 -15.993106,26.357986 -22.579103,35.958984 35.871001,32.027007 12.518197,47.503847 -7.820806,109.735847 -4.728,-13.2 -8.492842,-22.96868 -11.318839,-29.24268 -14.37201,1.791 -46.25124,1.787 -60.61524,0 -2.826,6.274 -6.58985,16.04268 -11.31885,29.24268 z"
           sodipodi:nodetypes="ccccccccccc" />
      </g>
      <g
         transform="translate(234.02824,173.48883)"
         id="g859"
         style="fill:none"
         inkscape:label="box_left">
        <path
           id="path861"
           style="fill:none;stroke:#1d1d1b;stroke-width:8.375;stroke-linecap:butt;stroke-linejoin:miter;stroke-miterlimit:10;stroke-dasharray:none;stroke-opacity:1"
           d="m 0,0 -0.393,166.037 c -0.02,8.17 8.329,13.693 15.841,10.482 l 151.15,-64.616 c 4.176,-1.783 6.89,-5.884 6.901,-10.426 l 0.392,-166.037 c 0.019,-8.169 -8.328,-13.693 -15.84,-10.482 L 6.901,-10.429 C 2.725,-8.643 0.011,-4.542 0,0 Z" />
      </g>
      <g
         id="g2033"
         inkscape:label="eye"
         style="fill:none">
        <g
           id="g867"
           transform="translate(278.271,428.0974)"
           style="fill:none">
          <path
             d="M 0,0 16.256,-13.375"
             style="fill:none;stroke:#ffffff;stroke-width:4.188;stroke-linecap:round;stroke-linejoin:round;stroke-miterlimit:10;stroke-dasharray:none;stroke-opacity:1"
             id="path869" />
        </g>
        <g
           id="g871"
           transform="translate(294.8618,427.6687)"
           style="fill:none">
          <path
             d="M 0,0 -16.925,-12.518"
             style="fill:none;stroke:#ffffff;stroke-width:4.188;stroke-linecap:round;stroke-linejoin:round;stroke-miterlimit:10;stroke-dasharray:none;stroke-opacity:1"
             id="path873" />
        </g>
      </g>
      <g
         id="g1442"
         transform="matrix(1,0,0,-1,408.49669,275.65544)"
         style="fill:none;fill-opacity:1;stroke:#1d1d1b;stroke-opacity:1"
         inkscape:label="box_right">
        <path
           d="m 0,0 -0.393,166.037 c -0.02,8.17 8.329,13.693 15.841,10.482 l 151.15,-64.616 c 4.176,-1.783 6.89,-5.884 6.901,-10.426 l 0.392,-166.037 c 0.019,-8.169 -8.328,-13.693 -15.84,-10.482 L 6.901,-10.429 C 2.725,-8.643 0.011,-4.542 0,0 Z"
           style="fill:none;fill-opacity:1;stroke:#1d1d1b;stroke-width:8.375;stroke-linecap:butt;stroke-linejoin:miter;stroke-miterlimit:10;stroke-dasharray:none;stroke-opacity:1"
           id="path1440" />
      </g>
    </g>
  </g>
</svg>
