<?xml version="1.0" encoding="UTF-8"?>
<svg width="500" height="500" version="1.1" viewBox="0 0 132.29 132.29" xmlns="http://www.w3.org/2000/svg">
 <path d="m14.339 30.092c18.586-24.745 57.063-31.945 84.453-14.915 27.046 16.816 36.994 49.147 25.916 79.483-10.46 28.644-38.02 39.993-57.884 25.584-7.441-5.3975-10.326-12.163-11.72-23.154l-0.66638-6.2432-0.28662-2.5116c-0.77387-5.9027-1.9657-8.5473-4.4509-9.9325-3.3847-1.8866-5.6382-1.9306-10.083-0.2078l-2.2189 0.92004-1.1298 0.4925c-6.4066 2.7824-10.668 3.7599-16.059 2.6304l-1.2659-0.29832-1.0342-0.2945c-17.625-5.4613-20.235-29.367-3.572-51.553z" fill="none" stroke="#212121" stroke-width="6.3195"/>
 <g fill="#212121">
  <ellipse cx="74.508" cy="25.624" rx="8.4206" ry="8.5234"/>
  <ellipse cx="93.537" cy="39.145" rx="8.4206" ry="8.5234"/>
  <ellipse cx="105.06" cy="60.011" rx="8.4206" ry="8.5234"/>
  <ellipse cx="103.89" cy="83.214" rx="8.4206" ry="8.5234"/>
  <ellipse cx="90.199" cy="104.41" rx="8.4206" ry="8.5234"/>
 </g>
</svg>
