<?xml version="1.0" encoding="UTF-8"?>
<svg width="500" height="500" version="1.1" viewBox="0 0 500 500" xml:space="preserve" xmlns="http://www.w3.org/2000/svg">
	<path d="m176.82 498.2c4.8616 2.5845 9.99-3.0123 7.0135-7.6446-16.156-25.145-31.455-67.457-7.0802-121.95 40.648-90.87 65.382-137.94 65.382-137.94s13.156 54.924 48.819 103.76c34.323 47 53.11 106.11 22.823 155.35-2.8423 4.6217 2.1698 10.075 6.9997 7.6031 37.491-19.178 79.541-57.647 84.286-134.2 1.7493-23.392-0.87424-56.142-13.993-97.469-16.868-52.378-37.604-76.819-49.602-87.315-3.5889-3.14-9.1702-0.35702-8.8758 4.4021 3.4962 56.516-17.766 70.858-29.868 38.537-4.8332-12.91-7.6519-35.238-7.6519-62.43 0-45.27-13.134-91.871-42.09-129.74-7.5299-9.8477-16.341-19.05-26.449-26.897-3.6596-2.8415-8.9645 0.014639-8.6294 4.6355 2.2234 30.689 0.20901 118.64-76.953 223.72-69.963 97.469-42.853 172.33-33.233 192.6 18.393 38.84 44.047 61.649 69.102 74.971z" stroke-width=".81325"/>
</svg>
