<?xml version="1.0" encoding="UTF-8"?>
<!-- Created with Inkscape (http://www.inkscape.org/) -->
<svg width="89.471mm" height="41.38mm" version="1.1" viewBox="0 0 89.471 41.38" xmlns="http://www.w3.org/2000/svg">
 <defs>
  <clipPath id="c">
   <path d="M 0,131.582 H 271.582 V 0 H 0 Z"/>
  </clipPath>
  <clipPath id="b">
   <path d="M 0,131.582 H 271.582 V 0 H 0 Z"/>
  </clipPath>
  <clipPath id="a">
   <path d="M 0,131.582 H 271.582 V 0 H 0 Z"/>
  </clipPath>
 </defs>
 <g transform="matrix(.35278 0 0 -.35278 -3.9118 43.417)">
  <g transform="translate(43.236 29.118)">
   <path d="m0 0-3.294-0.556 5e-3 -1.479 2.824-0.457 0.459-0.077v3e-3l0.015-3e-3z"/>
  </g>
  <g clip-path="url(#c)">
   <g transform="translate(94.401 28.26)">
    <path d="m0 0c0.134 0 0.243-0.106 0.244-0.242 0-0.133-0.109-0.24-0.243-0.242-0.131 0-0.242 0.109-0.243 0.241 0 0.136 0.11 0.243 0.242 0.243m4e-3 -1.218c0.54 1e-3 0.976 0.442 0.975 0.98-2e-3 0.541-0.441 0.976-0.982 0.974-0.538-3e-3 -0.975-0.44-0.974-0.98 2e-3 -0.539 0.443-0.976 0.981-0.974"/>
   </g>
   <g transform="translate(83.716 27.37)">
    <path d="m0 0c0.336 3e-3 0.609 0.277 0.608 0.613-2e-3 0.337-0.276 0.609-0.611 0.609-0.339-4e-3 -0.61-0.276-0.609-0.614 2e-3 -0.336 0.274-0.609 0.612-0.608"/>
   </g>
   <g transform="translate(79.014 27.354)">
    <path d="m0 0c0.336 0 0.609 0.275 0.607 0.612-1e-3 0.338-0.275 0.609-0.612 0.607-0.338 0-0.609-0.275-0.608-0.613 2e-3 -0.335 0.275-0.607 0.613-0.606"/>
   </g>
   <g transform="translate(74.307 28.556)">
    <path d="m0 0c-0.338-1e-3 -0.611-0.274-0.609-0.611 1e-3 -0.337 0.275-0.609 0.613-0.609 0.336 2e-3 0.609 0.275 0.608 0.612-2e-3 0.337-0.276 0.61-0.612 0.608"/>
   </g>
   <g transform="translate(72.574 26.227)">
    <path d="m0 0c0.232 1.068 0.232 2.173 0.019 3.243-0.011 0.063-0.017 0.126-0.029 0.188l2.036 7e-3 1.724-7e-3c-0.167-0.107-0.278-0.292-0.278-0.508 1e-3 -0.336 0.274-0.607 0.611-0.607 0.337 1e-3 0.609 0.275 0.609 0.61-1e-3 0.079-0.031 0.144-0.057 0.212-3e-3 7e-3 -3e-3 0.014-5e-3 0.019-0.028 0.066-0.066 0.117-0.113 0.167-6e-3 8e-3 -8e-3 0.014-0.014 0.021-0.017 0.016-0.034 0.033-0.051 0.05-0.015 0.014-0.031 0.032-0.044 0.052l2.18 8e-3 1.865-7e-3c-0.167-0.105-0.279-0.292-0.278-0.508 1e-3 -0.337 0.274-0.608 0.611-0.607s0.61 0.275 0.609 0.612c-1e-3 0.076-0.031 0.143-0.058 0.211-2e-3 6e-3 -2e-3 0.012-5e-3 0.019-0.027 0.063-0.065 0.117-0.112 0.168-6e-3 5e-3 -9e-3 0.014-0.014 0.019-0.016 0.016-0.034 0.032-0.053 0.049-0.014 0.016-0.028 0.033-0.043 0.053l14.11 0.051c0.201 0 0.363-0.16 0.364-0.36l1e-3 -0.174 1e-3 -0.368 6e-3 -1.628 1e-3 -0.368 2e-3 -0.174c0-0.199-0.161-0.361-0.363-0.362l-14.118-0.05c0.174 0.106 0.29 0.299 0.289 0.517-1e-3 0.338-0.277 0.611-0.612 0.61-0.337-3e-3 -0.609-0.277-0.608-0.613 1e-3 -0.08 0.031-0.153 0.06-0.223 1e-3 -1e-3 1e-3 -4e-3 1e-3 -6e-3 0.029-0.067 0.068-0.119 0.117-0.172 5e-3 -6e-3 7e-3 -0.015 0.013-0.019 0.014-0.014 0.028-0.026 0.043-0.04 0.015-0.016 0.03-0.036 0.044-0.057l-2.178-9e-3 -1.859 6e-3c0.166 0.11 0.277 0.294 0.277 0.508-2e-3 0.337-0.277 0.608-0.612 0.607-0.339-1e-3 -0.61-0.276-0.609-0.613 0-0.079 0.032-0.15 0.061-0.222 0-1e-3 0-2e-3 1e-3 -6e-3 0.028-0.065 0.068-0.12 0.117-0.171 5e-3 -5e-3 7e-3 -0.015 0.012-0.022 0.014-0.011 0.029-0.025 0.043-0.039 0.015-0.015 0.031-0.035 0.045-0.055l-3.1-0.012zm-5.653-0.496c0.076-0.075 0.122-0.178 0.122-0.29l6e-3 -1.49-0.823-4e-3 -6e-3 1.491c0 0.227 0.183 0.414 0.41 0.415 0.114 0 0.217-0.045 0.291-0.122m2.462-0.13c0.019-0.048 0.03-0.097 0.03-0.151l4e-3 -0.89 2e-3 -0.6-0.823-5e-3 -6e-3 1.493c0 0.226 0.182 0.411 0.41 0.413 0.115 0 0.217-0.045 0.29-0.12 0.042-0.041 0.073-0.088 0.093-0.14m-0.398 4.392c-0.114 0-0.217 0.046-0.29 0.122-0.076 0.074-0.122 0.177-0.123 0.29l-6e-3 1.489 0.824 4e-3 2e-3 -0.599 3e-3 -0.89c0-0.055-9e-3 -0.104-0.029-0.151-0.058-0.155-0.207-0.263-0.381-0.265m-1.965 1.897 5e-3 -1.489c2e-3 -0.229-0.182-0.415-0.409-0.416-0.114 0-0.217 0.045-0.292 0.119-0.075 0.077-0.121 0.179-0.121 0.293l-5e-3 1.49zm-23.19-5.951c3e-3 -0.702 0.576-1.274 1.278-1.273l18.218 0.068 0.713-1.896 2.191 8e-3 0.823 2e-3 1.547 5e-3 0.823 5e-3 2.029 7e-3 0.606 1.705 23.755 0.085c1.112 5e-3 2.012 0.912 2.009 2.02l-1e-3 0.174 3.995 0.015 4.08 0.732c0.113 0.021 0.212 0.079 0.28 0.164 0.069 0.081 0.11 0.189 0.11 0.302 0 0.23-0.165 0.425-0.39 0.464l-4.025 0.696-4.059-0.011-1e-3 0.177c-4e-3 1.111-0.911 2.011-2.023 2.007l-23.754-0.086-0.619 1.699-2.029-7e-3 -0.823-3e-3 -1.547-6e-3 -0.822-4e-3 -2.192-8e-3 -0.699-1.901-18.219-0.066c-0.701-3e-3 -1.27-0.575-1.268-1.28z"/>
   </g>
  </g>
  <g transform="matrix(1 0 0 -1 22.311 53.341)" aria-label="KLUSHOK">
   <path d="m11.053-17.16v17.16h-8.2224v-54.339h8.2224v19.364l9.9503-19.364h8.7586l-11.202 22.224 13.108 32.115h-9.6226l-8.5799-22.016z"/>
   <path d="m60.635 0h-22.314v-54.339h8.1628v46.206h14.151z"/>
   <path d="m79.201 0.6852q-5.3922 0-9.1757-3.7537-3.7537-3.7835-3.7537-9.1459v-42.125h8.0139v42.036q0 1.9364 1.3704 3.3068 1.4002 1.3704 3.3366 1.3704 1.9662 0 3.3068-1.3704 1.3704-1.3704 1.3704-3.3068v-42.036h8.5501v42.125q0 5.4518-3.8133 9.1757-3.8133 3.7239-9.2055 3.7239z"/>
   <path d="m126.07-13.495q0.0894 5.6901-2.9493 9.712-1.996 2.7408-5.6306 3.8431-1.9662 0.62562-4.5581 0.62562-4.8262 0-7.9841-2.3833-2.6216-1.9662-4.1708-5.3029-1.5491-3.3664-1.7875-7.7457l7.7755-0.53624q0.53624 4.7368 2.5323 6.852 1.4598 1.6087 3.3664 1.5194 2.6812-0.089374 4.2899-2.6216 0.83416-1.281 0.83416-3.6047 0-3.426-3.0685-6.7626-2.4429-2.2939-7.2989-6.8818-4.0814-3.9325-5.7497-7.0605-1.8173-3.5154-1.8173-7.6266 0-7.418 4.9751-11.231 3.0685-2.2939 7.6266-2.2939 4.3793 0 7.5074 1.9662 2.4131 1.5194 3.9027 4.2602 1.4896 2.711 1.8173 6.2562l-7.8649 1.43q-0.3277-3.3366-1.9066-5.1837-1.1321-1.3704-3.2472-1.3704-2.2344 0-3.426 1.996-0.95333 1.6087-0.95333 3.992 0 3.7239 3.2175 7.5968 1.2214 1.4598 3.6345 3.4558 2.86 2.3833 3.7835 3.3366 3.0089 3.0387 4.6772 5.9881 0.77457 1.3704 1.2512 2.5621 1.1619 2.8898 1.2214 5.2135z"/>
   <path d="m141.07-22.999v22.999h-8.2224v-54.339h8.2224v23.088h9.8013v-23.088h8.2224v54.339h-8.2224v-22.999z"/>
   <path d="m179.27-54.995q5.422 0 9.2055 3.8133 3.8133 3.8133 3.8133 9.2055v29.642q0 5.422-3.8133 9.2353-3.8133 3.7835-9.2055 3.7835-5.3922 0-9.1757-3.8133-3.7537-3.8133-3.7537-9.2055v-29.642q0-5.422 3.8133-9.2055 3.8133-3.8133 9.1161-3.8133zm4.4687 12.84q0-1.9662-1.3704-3.3068-1.3406-1.3704-3.3068-1.3704-1.9364 0-3.3366 1.3704-1.3704 1.3406-1.3704 3.3068v29.762q0 1.9364 1.3704 3.3068 1.4002 1.3704 3.3366 1.3704 1.9662 0 3.3068-1.3704 1.3704-1.3704 1.3704-3.3068z"/>
   <path d="m207.71-17.16v17.16h-8.2224v-54.339h8.2224v19.364l9.9503-19.364h8.7586l-11.202 22.224 13.108 32.115h-9.6226l-8.5799-22.016z"/>
  </g>
  <g clip-path="url(#b)">
   <g transform="translate(146.53 30.214)">
    <path d="m0 0c-4e-3 -0.019-9e-3 -0.038-0.014-0.058l0.025 1e-3c0.047-6.007-4.803-10.932-10.81-10.979-5.999-0.046-10.919 4.966-10.979 10.962l-13.238-0.046 0.041-5.334 6.619 0.051c0.386-1.286 0.916-2.526 1.58-3.701l-4.114-4.178-0.54-0.547 6.942-6.835 0.548-0.539 0.539 0.548 4.205 4.269c1.098-0.563 2.255-1.014 3.45-1.343l0.052-6.71 10.509 0.081-0.052 6.861c1.063 0.347 2.096 0.792 3.083 1.332l4.36-4.292 0.548-0.54 0.539 0.548 6.296 6.393 0.539 0.547-4.892 4.818c0.563 1.057 1.019 2.164 1.361 3.301l6.179 0.048 0.77 6e-3 -0.042 5.383z"/>
   </g>
  </g>
  <g transform="matrix(1 0 0 -1 54.911 37.814)" aria-label="electrotechnische vereeniging">
   <path d="m0.56603 0v-10.868h4.6594v1.6385h-3.0268v2.9732h2.2105v1.6445h-2.2105v2.9732h3.0268v1.6385z"/>
   <path d="m10.813 0h-4.4627v-10.868h1.6326v9.2412h2.8302z"/>
   <path d="m11.939 0v-10.868h4.6594v1.6385h-3.0268v2.9732h2.2105v1.6445h-2.2105v2.9732h3.0268v1.6385z"/>
   <path d="m20.321 0.13704q-1.0844 0-1.8411-0.7567-0.7567-0.7567-0.7567-1.8351v-5.9523q0-1.0784 0.76266-1.8351 0.76266-0.76266 1.8351-0.76266 1.0844 0 1.8351 0.76266 0.7567 0.76266 0.7567 1.8351v1.2393h-1.6981v-1.2691q0-0.39324-0.28004-0.66732-0.27408-0.28004-0.66732-0.28004-0.38729 0-0.66137 0.28004-0.27408 0.27408-0.27408 0.66732v5.9642q0 0.39324 0.27408 0.66732t0.66137 0.27408q0.39324 0 0.66732-0.27408 0.28004-0.27408 0.28004-0.66732v-1.4955h1.6981v1.5134q0 1.0844-0.76266 1.8411-0.76266 0.75074-1.8292 0.75074z"/>
   <path d="m25.783-9.2293h-1.7398v-1.6385h5.1122v1.6385h-1.7339v9.2293h-1.6385z"/>
   <path d="m33.053-10.868q1.3704 0 2.0079 0.7567 0.56603 0.66137 0.56603 1.8351v1.5789q0 1.1559-0.87586 1.9483l1.2155 4.7487h-1.7696l-1.001-4.1052q-0.0715 0.00596-0.14896 0.00596h-0.9414v4.0993h-1.6326v-10.868zm0.97715 2.6216q0-0.94736-0.93545-0.94736h-0.98907v3.4737h0.98907q0.39324 0 0.66137-0.27408 0.27408-0.28004 0.27408-0.66732z"/>
   <path d="m39.685-10.999q1.0844 0 1.8411 0.76266 0.76266 0.76266 0.76266 1.8411v5.9285q0 1.0844-0.76266 1.8471-0.76266 0.7567-1.8411 0.7567-1.0784 0-1.8351-0.76266-0.75074-0.76266-0.75074-1.8411v-5.9285q0-1.0844 0.76266-1.8411 0.76266-0.76266 1.8232-0.76266zm0.89374 2.568q0-0.39324-0.27408-0.66137-0.26812-0.27408-0.66137-0.27408-0.38729 0-0.66732 0.27408-0.27408 0.26812-0.27408 0.66137v5.9523q0 0.38729 0.27408 0.66137 0.28004 0.27408 0.66732 0.27408 0.39324 0 0.66137-0.27408 0.27408-0.27408 0.27408-0.66137z"/>
   <path d="m45.16-9.2293h-1.7398v-1.6385h5.1122v1.6385h-1.7339v9.2293h-1.6385z"/>
   <path d="m49.851 0v-10.868h4.6594v1.6385h-3.0268v2.9732h2.2105v1.6445h-2.2105v2.9732h3.0268v1.6385z"/>
   <path d="m58.232 0.13704q-1.0844 0-1.8411-0.7567-0.7567-0.7567-0.7567-1.8351v-5.9523q0-1.0784 0.76266-1.8351 0.76266-0.76266 1.8351-0.76266 1.0844 0 1.8351 0.76266 0.7567 0.76266 0.7567 1.8351v1.2393h-1.6981v-1.2691q0-0.39324-0.28004-0.66732-0.27408-0.28004-0.66732-0.28004-0.38729 0-0.66137 0.28004-0.27408 0.27408-0.27408 0.66732v5.9642q0 0.39324 0.27408 0.66732 0.27408 0.27408 0.66137 0.27408 0.39324 0 0.66732-0.27408 0.28004-0.27408 0.28004-0.66732v-1.4955h1.6981v1.5134q0 1.0844-0.76266 1.8411-0.76266 0.75074-1.8292 0.75074z"/>
   <path d="m63.814-4.5998v4.5998h-1.6445v-10.868h1.6445v4.6176h1.9603v-4.6176h1.6445v10.868h-1.6445v-4.5998z"/>
   <path d="m70.726-10.868 2.1688 7.2989v-7.2989h1.6385v10.868h-1.7577l-2.2582-6.9592v6.9592h-1.6326v-10.868z"/>
   <path d="m77.633 0h-1.6326v-10.868h1.6326z"/>
   <path d="m84.423-2.6991q0.01787 1.138-0.58987 1.9424-0.3992 0.54816-1.1261 0.76861-0.39324 0.12512-0.91161 0.12512-0.96524 0-1.5968-0.47666-0.52433-0.39324-0.83416-1.0606-0.30983-0.67328-0.3575-1.5491l1.5551-0.10725q0.10725 0.94736 0.50645 1.3704 0.29195 0.32175 0.67328 0.30387 0.53624-0.017875 0.85799-0.52433 0.16683-0.2562 0.16683-0.72095 0-0.6852-0.6137-1.3525-0.48858-0.45879-1.4598-1.3764-0.81628-0.78649-1.1499-1.4121-0.36345-0.70307-0.36345-1.5253 0-1.4836 0.99503-2.2463 0.6137-0.45878 1.5253-0.45878 0.87586 0 1.5015 0.39324 0.48262 0.30387 0.78053 0.85203 0.29791 0.5422 0.36345 1.2512l-1.573 0.286q-0.06554-0.66732-0.38133-1.0367-0.22641-0.27408-0.64945-0.27408-0.44687 0-0.6852 0.3992-0.19066 0.32175-0.19066 0.79841 0 0.74478 0.64349 1.5194 0.24429 0.29195 0.72691 0.69116 0.57199 0.47666 0.7567 0.66732 0.60178 0.60774 0.93544 1.1976 0.15492 0.27408 0.25025 0.51241 0.23237 0.57795 0.24429 1.0427z"/>
   <path d="m88.357 0.13704q-1.0844 0-1.8411-0.7567-0.7567-0.7567-0.7567-1.8351v-5.9523q0-1.0784 0.76266-1.8351 0.76266-0.76266 1.8351-0.76266 1.0844 0 1.8351 0.76266 0.7567 0.76266 0.7567 1.8351v1.2393h-1.6981v-1.2691q0-0.39324-0.28004-0.66732-0.27408-0.28004-0.66732-0.28004-0.38729 0-0.66137 0.28004-0.27408 0.27408-0.27408 0.66732v5.9642q0 0.39324 0.27408 0.66732 0.27408 0.27408 0.66137 0.27408 0.39324 0 0.66732-0.27408 0.28004-0.27408 0.28004-0.66732v-1.4955h1.6981v1.5134q0 1.0844-0.76266 1.8411-0.76266 0.75074-1.8292 0.75074z"/>
   <path d="m93.938-4.5998v4.5998h-1.6445v-10.868h1.6445v4.6176h1.9603v-4.6176h1.6445v10.868h-1.6445v-4.5998z"/>
   <path d="m99.01 0v-10.868h4.6594v1.6385h-3.0268v2.9732h2.2105v1.6445h-2.2105v2.9732h3.0268v1.6385z"/>
   <path d="m107.85 0-1.9364-10.868h1.716l1.3585 8.4607 1.3764-8.4607h1.716l-1.9722 10.868z"/>
   <path d="m113.46 0v-10.868h4.6594v1.6385h-3.0268v2.9732h2.2105v1.6445h-2.2105v2.9732h3.0268v1.6385z"/>
   <path d="m121.82-10.868q1.3704 0 2.0079 0.7567 0.56604 0.66137 0.56604 1.8351v1.5789q0 1.1559-0.87586 1.9483l1.2155 4.7487h-1.7696l-1.001-4.1052q-0.0715 0.00596-0.14895 0.00596h-0.94141v4.0993h-1.6326v-10.868zm0.97716 2.6216q0-0.94736-0.93545-0.94736h-0.98907v3.4737h0.98907q0.39325 0 0.66137-0.27408 0.27408-0.28004 0.27408-0.66732z"/>
   <path d="m126.14 0v-10.868h4.6594v1.6385h-3.0268v2.9732h2.2105v1.6445h-2.2105v2.9732h3.0268v1.6385z"/>
   <path d="m131.92 0v-10.868h4.6594v1.6385h-3.0268v2.9732h2.2105v1.6445h-2.2105v2.9732h3.0268v1.6385z"/>
   <path d="m139.55-10.868 2.1688 7.2989v-7.2989h1.6385v10.868h-1.7577l-2.2582-6.9592v6.9592h-1.6326v-10.868z"/>
   <path d="m146.46 0h-1.6326v-10.868h1.6326z"/>
   <path d="m150.51 0.13704q-1.0844 0-1.8411-0.76266-0.75669-0.76266-0.75669-1.8292v-5.9523q0-1.0784 0.76265-1.8351 0.76266-0.76266 1.8351-0.76266 1.0844 0 1.8352 0.76266 0.75669 0.76266 0.75669 1.8351v1.2393h-1.6981v-1.2691q0-0.39324-0.28004-0.66732-0.27408-0.28004-0.66732-0.28004-0.38729 0-0.66137 0.28004-0.27408 0.27408-0.27408 0.66732v5.9642q0 0.39324 0.27408 0.66732t0.66137 0.27408q0.39324 0 0.66732-0.27408 0.28004-0.27408 0.28004-0.66732v-2.139h-0.91161v-1.6385h2.6097v3.7954q0 1.0844-0.76265 1.8411-0.76266 0.75074-1.8292 0.75074z"/>
   <path d="m156.15 0h-1.6326v-10.868h1.6326z"/>
   <path d="m159.46-10.868 2.1688 7.2989v-7.2989h1.6385v10.868h-1.7577l-2.2582-6.9592v6.9592h-1.6326v-10.868z"/>
   <path d="m167.31 0.13704q-1.0844 0-1.8411-0.76266-0.7567-0.76266-0.7567-1.8292v-5.9523q0-1.0784 0.76265-1.8351 0.76266-0.76266 1.8352-0.76266 1.0844 0 1.8351 0.76266 0.7567 0.76266 0.7567 1.8351v1.2393h-1.6981v-1.2691q0-0.39324-0.28003-0.66732-0.27408-0.28004-0.66733-0.28004-0.38728 0-0.66136 0.28004-0.27408 0.27408-0.27408 0.66732v5.9642q0 0.39324 0.27408 0.66732t0.66136 0.27408q0.39325 0 0.66733-0.27408 0.28003-0.27408 0.28003-0.66732v-2.139h-0.91161v-1.6385h2.6097v3.7954q0 1.0844-0.76266 1.8411-0.76266 0.75074-1.8292 0.75074z"/>
  </g>
  <g clip-path="url(#a)">
   <g transform="translate(35.513 27.922)">
    <path d="m0 0h-19.924v90.65h244.62v-90.65h-17.617" fill="none" stroke="#000" stroke-miterlimit="10" stroke-width="9"/>
   </g>
   <g transform="translate(228.65 29.712)">
    <path d="m0 0-17.78-5e-3c-0.498 0-0.901 0.323-0.901 0.721 0 0.4 0.406 0.722 0.901 0.723l17.782 2e-3c0.249 0 0.475-0.08 0.637-0.211 0.161-0.131 0.264-0.311 0.264-0.509 0-0.399-0.402-0.721-0.903-0.721m0-2.524-17.783-5e-3c-0.497 0-0.898 0.322-0.898 0.721-3e-3 0.398 0.403 0.721 0.898 0.721l17.783 5e-3c0.248-1e-3 0.474-0.081 0.636-0.212 0.164-0.13 0.262-0.311 0.262-0.51 0-0.399-0.399-0.72-0.898-0.72m0-2.885-17.783-4e-3c-0.497 0-0.901 0.323-0.901 0.72 3e-3 0.401 0.406 0.722 0.901 0.722l17.783 4e-3c0.248 0 0.472-0.081 0.636-0.212 0.162-0.131 0.262-0.31 0.262-0.509 0-0.4-0.401-0.721-0.898-0.721m5.933 7.958c-0.483 0.389-1.023 0.719-1.602 0.986-1.025 0.472-20.275 0.319-24.312 0.144-0.241-0.069-0.782-0.286-0.796-0.347-0.166-0.659-0.888-1.156-1.756-1.156-0.959-3e-3 -1.799 0.668-1.799 1.44 0 0.399-0.4 0.722-0.896 0.722l-3.85-1e-3c-0.498 0-0.904-0.323-0.904-0.722l-1e-3 -3.772s-22.4-0.457-22.528-0.239c-0.191 0.327-0.456 0.629-0.785 0.892-0.763 0.612-1.78 0.951-2.854 0.951-0.284 3e-3 -0.573-0.025-0.884-0.082l-6.429-0.644c-0.451-0.047-0.789-0.352-0.788-0.716l-2e-3 -3.606c1e-3 -0.364 0.339-0.67 0.788-0.713l6.431-0.644c0.306-0.056 0.592-0.082 0.875-0.082 1.442 0 2.707 0.608 3.42 1.521 0.24 0.304 22.756 0.112 22.756 0.112v-3.791c0-0.382 0.42-0.72 0.898-0.72l3.851 1e-3c0.497 0 0.902 0.322 0.902 0.72 0 0.796 0.805 1.443 1.797 1.443 0.962 0 1.797-0.673 1.797-1.443 0-0.061 9e-3 -0.12 0.027-0.178 0.041-0.124 23.711-0.294 24.797 0.167 0.219 0.092 1.471 0.793 1.845 1.092 1.445 1.158 2.239 2.694 2.239 4.333 0 1.637-0.794 3.176-2.237 4.332"/>
   </g>
  </g>
 </g>
</svg>
