<svg xmlns="http://www.w3.org/2000/svg" xmlns:xlink="http://www.w3.org/1999/xlink" width="300" height="138.75" viewBox="0 0 79.375 36.71" xmlns:v="https://vecta.io/nano"><defs><clipPath id="A"><path d="M0 131.582h271.582V0H0z"/></clipPath><clipPath id="B"><path d="M0 131.582h271.582V0H0z"/></clipPath><clipPath id="C"><path d="M0 131.582h271.582V0H0z"/></clipPath><path id="D" d="M66.85 37.814v10.868h4.659v-1.639h-3.027V44.07h2.21v-1.645h-2.21v-2.973h3.027v-1.639z"/><path id="E" d="M75.232 37.677q-1.084 0-1.841.757-.757.757-.757 1.835v5.952q0 1.078.763 1.835.763.763 1.835.763 1.084 0 1.835-.763.757-.763.757-1.835v-1.239h-1.698v1.269q0 .393-.28.667-.274.28-.667.28-.387 0-.661-.28-.274-.274-.274-.667v-5.964q0-.393.274-.667.274-.274.661-.274.393 0 .667.274.28.274.28.667v1.496h1.698v-1.513q0-1.084-.763-1.841-.763-.751-1.829-.751z"/><path id="F" d="M125.637 48.682l2.169-7.299v7.299h1.638V37.814h-1.758l-2.258 6.959v-6.959h-1.633v10.868z"/><path id="G" d="M205.421 37.677q-1.084 0-1.841.763-.757.763-.757 1.829v5.952q0 1.078.763 1.835.763.763 1.835.763 1.084 0 1.835-.763.757-.763.757-1.835v-1.239h-1.698v1.269q0 .393-.28.667-.274.28-.667.28-.387 0-.661-.28-.274-.274-.274-.667v-5.964q0-.393.274-.667.274-.274.661-.274.393 0 .667.274.28.274.28.667v2.139h-.912v1.639h2.61v-3.795q0-1.084-.763-1.841-.763-.751-1.829-.751z"/></defs><g transform="matrix(.31297 0 0 -.31297 -3.4705 38.518)"><path d="M43.236 29.118l-3.294-.556.005-1.479 2.824-.457.459-.077v.003l.015-.003z"/><g clip-path="url(#A)"><path d="M94.401 28.26c.134 0 .243-.106.244-.242s-.109-.24-.243-.242-.242.109-.243.241.11.243.242.243m.004-1.218a.98.98 0 0 1 .975.98c-.002.541-.441.976-.982.974a.98.98 0 0 1-.974-.98.98.98 0 0 1 .981-.974m-10.689.328c.336.003.609.277.608.613s-.276.609-.611.609-.61-.276-.609-.614a.61.61 0 0 1 .612-.608m-4.702-.016a.61.61 0 1 1-.613.606.61.61 0 0 1 .613-.606m-4.707 1.202a.61.61 0 1 1 .004-1.22.61.61 0 1 1-.004 1.22m-1.733-2.329a7.96 7.96 0 0 1 .019 3.243l-.029.188 2.036.007 1.724-.007a.6.6 0 0 1-.278-.508.61.61 0 1 1 1.22.003c-.001.079-.031.144-.057.212a.53.53 0 0 1-.118.186c-.006.008-.008.014-.014.021l-.051.05c-.015.014-.031.032-.044.052l2.18.008 1.865-.007c-.167-.105-.279-.292-.278-.508a.61.61 0 1 1 1.22.005c-.001.076-.031.143-.058.211a.56.56 0 0 1-.117.187c-.006.005-.009.014-.014.019l-.053.049-.043.053 14.11.051c.201 0 .363-.16.364-.36l.001-.174.001-.368.006-1.628.001-.368.002-.174c0-.199-.161-.361-.363-.362l-14.118-.05c.174.106.29.299.289.517-.001.338-.277.611-.612.61s-.609-.277-.608-.613c.001-.08.031-.153.06-.223a.57.57 0 0 1 .118-.178c.005-.006.007-.015.013-.019l.043-.04a.45.45 0 0 0 .044-.057l-2.178-.009-1.859.006c.166.11.277.294.277.508a.611.611 0 1 1-1.221-.006c0-.079.032-.15.061-.222a.55.55 0 0 1 .118-.177c.005-.005.007-.015.012-.022.014-.011.029-.025.043-.039s.031-.035.045-.055l-3.1-.012zm-5.653-.496c.076-.075.122-.178.122-.29l.006-1.49-.823-.004-.006 1.491c0 .227.183.414.41.415a.4.4 0 0 0 .291-.122m2.462-.13c.019-.048.03-.097.03-.151l.004-.89.002-.6-.823-.005-.006 1.493c0 .226.182.411.41.413a.4.4 0 0 0 .29-.12.39.39 0 0 0 .093-.14m-.398 4.392a.4.4 0 0 0-.29.122.41.41 0 0 0-.123.29l-.006 1.489.824.004.002-.599.003-.89c0-.055-.009-.104-.029-.151a.41.41 0 0 0-.381-.265M67.02 31.89l.005-1.489a.41.41 0 0 0-.409-.416c-.114 0-.217.045-.292.119a.41.41 0 0 0-.121.293l-.005 1.49zm-23.19-5.951a1.28 1.28 0 0 1 1.278-1.273l18.218.068.713-1.896 2.191.008.823.002 1.547.005.823.005 2.029.007.606 1.705 23.755.085a2.02 2.02 0 0 1 2.009 2.02l-.001.174 3.995.015 4.08.732c.113.021.212.079.28.164a.47.47 0 0 1-.28.766l-4.025.696-4.059-.011-.001.177c-.004 1.111-.911 2.011-2.023 2.007l-23.754-.086-.619 1.699-2.029-.007-.823-.003-1.547-.006-.822-.004-2.192-.008-.699-1.901-18.219-.066c-.701-.003-1.27-.575-1.268-1.28z"/></g><path d="M33.364 70.501v-17.16h-8.222v54.339h8.222V88.316l9.95 19.364h8.759L40.871 85.456l13.108-32.115h-9.623l-8.58 22.016zm49.582-17.16H60.632v54.339h8.163V61.474h14.151zm18.566-.685q-5.392 0-9.176 3.754-3.754 3.783-3.754 9.146v42.125h8.014V65.644q0-1.936 1.37-3.307 1.4-1.37 3.337-1.37 1.966 0 3.307 1.37 1.37 1.37 1.37 3.307v42.036h8.55V65.555q0-5.452-3.813-9.176-3.813-3.724-9.205-3.724zm46.869 14.18q.089-5.69-2.949-9.712-1.996-2.741-5.631-3.843-1.966-.626-4.558-.626-4.826 0-7.984 2.383-2.622 1.966-4.171 5.303-1.549 3.366-1.787 7.746l7.775.536q.536-4.737 2.532-6.852 1.46-1.609 3.366-1.519 2.681.089 4.29 2.622.834 1.281.834 3.605 0 3.426-3.068 6.763-2.443 2.294-7.299 6.882-4.081 3.933-5.75 7.061-1.817 3.515-1.817 7.627 0 7.418 4.975 11.231 3.069 2.294 7.627 2.294 4.379 0 7.507-1.966 2.413-1.519 3.903-4.26 1.49-2.711 1.817-6.256l-7.865-1.43q-.328 3.337-1.907 5.184-1.132 1.37-3.247 1.37-2.234 0-3.426-1.996-.953-1.609-.953-3.992 0-3.724 3.218-7.597 1.221-1.46 3.635-3.456 2.86-2.383 3.784-3.337 3.009-3.039 4.677-5.988.775-1.37 1.251-2.562 1.162-2.89 1.221-5.214zm15 9.504V53.341h-8.222v54.339h8.222V84.592h9.801v23.088h8.222V53.341h-8.222V76.34zm38.2 31.996q5.422 0 9.206-3.813 3.813-3.813 3.813-9.205V65.675q0-5.422-3.813-9.235-3.813-3.784-9.205-3.784-5.392 0-9.176 3.813-3.754 3.813-3.754 9.206v29.642q0 5.422 3.813 9.206 3.813 3.813 9.116 3.813zm4.469-12.84q0 1.966-1.37 3.307-1.341 1.37-3.307 1.37-1.936 0-3.337-1.37-1.37-1.341-1.37-3.307V65.734q0-1.936 1.37-3.307 1.4-1.37 3.337-1.37 1.966 0 3.307 1.37 1.37 1.37 1.37 3.307zm23.971-24.995v-17.16h-8.222v54.339h8.222V88.316l9.95 19.364h8.759l-11.202-22.224 13.108-32.115h-9.623l-8.58 22.016z"/><g clip-path="url(#B)"><path d="M146.53 30.214l-.014-.058.025.001a10.91 10.91 0 0 0-10.81-10.979c-5.999-.046-10.919 4.966-10.979 10.962l-13.238-.046.041-5.334 6.619.051c.386-1.286.916-2.526 1.58-3.701l-4.114-4.178-.54-.547 6.942-6.835.548-.539.539.548 4.205 4.269a18.09 18.09 0 0 1 3.45-1.343l.052-6.71 10.509.081-.052 6.861c1.063.347 2.096.792 3.083 1.332l4.36-4.292.548-.54.539.548 6.296 6.393.539.547-4.892 4.818a18.14 18.14 0 0 1 1.361 3.301l6.179.048.77.006-.042 5.383z"/></g><path d="M55.477 37.814v10.868h4.659v-1.639H57.11V44.07h2.21v-1.645h-2.21v-2.973h3.027v-1.639zm10.247 0h-4.463v10.868h1.633v-9.241h2.83z"/><use xlink:href="#D"/><use xlink:href="#E"/><path d="M80.694 47.043h-1.74v1.639h5.112v-1.639h-1.734v-9.229h-1.639zm7.27 1.639q1.37 0 2.008-.757.566-.661.566-1.835v-1.579q0-1.156-.876-1.948l1.215-4.749h-1.77l-1.001 4.105q-.071-.006-.149-.006h-.941v-4.099h-1.633v10.868zm.977-2.622q0 .947-.935.947h-.989v-3.474h.989q.393 0 .661.274.274.28.274.667zm5.655 2.753q1.084 0 1.841-.763.763-.763.763-1.841v-5.928q0-1.084-.763-1.847-.763-.757-1.841-.757-1.078 0-1.835.763-.751.763-.751 1.841v5.929q0 1.084.763 1.841.763.763 1.823.763zm.894-2.568q0 .393-.274.661-.268.274-.661.274-.387 0-.667-.274-.274-.268-.274-.661v-5.952q0-.387.274-.661.28-.274.667-.274.393 0 .661.274.274.274.274.661zm4.581.798h-1.74v1.639h5.112v-1.639h-1.734v-9.229h-1.638z"/><use xlink:href="#D" x="37.912"/><use xlink:href="#E" x="37.911"/><path d="M118.725 42.414v-4.6h-1.644v10.868h1.644v-4.618h1.96v4.618h1.644V37.814h-1.644v4.6z"/><use xlink:href="#F"/><path d="M132.544 37.814h-1.633v10.868h1.633zm6.79 2.699q.018-1.138-.59-1.942-.399-.548-1.126-.769-.393-.125-.912-.125-.965 0-1.597.477-.524.393-.834 1.061-.31.673-.358 1.549l1.555.107q.107-.947.506-1.37.292-.322.673-.304.536.018.858.524.167.256.167.721 0 .685-.614 1.352-.489.459-1.46 1.376-.816.786-1.15 1.412-.363.703-.363 1.525 0 1.484.995 2.246.614.459 1.525.459.876 0 1.501-.393.483-.304.781-.852.298-.542.363-1.251l-1.573-.286q-.066.667-.381 1.037-.226.274-.649.274-.447 0-.685-.399-.191-.322-.191-.798 0-.745.643-1.519.244-.292.727-.691.572-.477.757-.667.602-.608.935-1.198.155-.274.25-.512.232-.578.244-1.043z"/><use xlink:href="#E" x="68.036"/><path d="M148.849 42.414v-4.6h-1.644v10.868h1.644v-4.618h1.96v4.618h1.644V37.814h-1.644v4.6z"/><use xlink:href="#D" x="87.071"/><path d="M162.761 37.814l-1.936 10.868h1.716l1.358-8.461 1.376 8.461h1.716l-1.972-10.868z"/><use xlink:href="#D" x="101.521"/><path d="M176.731 48.682q1.37 0 2.008-.757.566-.661.566-1.835v-1.579q0-1.156-.876-1.948l1.216-4.749h-1.77l-1.001 4.105q-.072-.006-.149-.006h-.941v-4.099h-1.633v10.868zm.977-2.622q0 .947-.935.947h-.989v-3.474h.989q.393 0 .661.274.274.28.274.667z"/><use xlink:href="#D" x="114.201"/><use xlink:href="#D" x="119.981"/><use xlink:href="#F" x="68.824"/><path d="M201.371 37.814h-1.633v10.868h1.633z"/><use xlink:href="#G"/><path d="M211.061 37.814h-1.633v10.868h1.633z"/><use xlink:href="#F" x="88.734"/><use xlink:href="#G" x="16.8"/><g clip-path="url(#C)"><path d="M35.513 27.922H15.589v90.65h244.62v-90.65h-17.617" fill="none" stroke="#000" stroke-miterlimit="10" stroke-width="9"/><path d="M228.65 29.712l-17.78-.005c-.498 0-.901.323-.901.721s.406.722.901.723l17.782.002c.249 0 .475-.08.637-.211s.264-.311.264-.509c0-.399-.402-.721-.903-.721m0-2.524l-17.783-.005c-.497 0-.898.322-.898.721s.403.721.898.721l17.783.005c.248-.001.474-.081.636-.212a.65.65 0 0 0 .262-.51c0-.399-.399-.72-.898-.72m0-2.885l-17.783-.004c-.497 0-.901.323-.901.72s.406.722.901.722l17.783.004a1.02 1.02 0 0 0 .636-.212c.162-.131.262-.31.262-.509 0-.4-.401-.721-.898-.721m5.933 7.958c-.483.389-1.023.719-1.602.986-1.025.472-20.275.319-24.312.144-.241-.069-.782-.286-.796-.347-.166-.659-.888-1.156-1.756-1.156-.959-.003-1.799.668-1.799 1.44 0 .399-.4.722-.896.722l-3.85-.001c-.498 0-.904-.323-.904-.722l-.001-3.772-22.528-.239a3.25 3.25 0 0 1-.785.892c-.763.612-1.78.951-2.854.951-.284.003-.573-.025-.884-.082l-6.429-.644c-.451-.047-.789-.352-.788-.716l-.002-3.606c.001-.364.339-.67.788-.713l6.431-.644a4.81 4.81 0 0 1 .875-.082c1.442 0 2.707.608 3.42 1.521.24.304 22.756.112 22.756.112v-3.791c0-.382.42-.72.898-.72l3.851.001c.497 0 .902.322.902.72 0 .796.805 1.443 1.797 1.443.962 0 1.797-.673 1.797-1.443 0-.061.009-.12.027-.178.041-.124 23.711-.294 24.797.167.219.092 1.471.793 1.845 1.092 1.445 1.158 2.239 2.694 2.239 4.333s-.794 3.176-2.237 4.332"/></g></g></svg>