<svg xmlns="http://www.w3.org/2000/svg" xmlns:xlink="http://www.w3.org/1999/xlink" width="300" height="275.76" viewBox="0 0 79.377 72.959" xmlns:v="https://vecta.io/nano"><defs><clipPath id="A"><path d="M0 595.276h841.89V0H0z"/></clipPath><path id="B" d="M492.73 117.21v-1.002l-1.623-.081v.906c0 .891-.336 1.291-.956 1.291s-.953-.4-.953-1.13v-6.076c0-.733.335-1.13.953-1.13s.956.397.956 1.288v1.242l1.623-.081v-1.334c0-1.686-.972-2.673-2.626-2.673-1.639 0-2.592.987-2.592 2.673v6.107c0 1.686.953 2.673 2.592 2.673 1.654 0 2.626-.987 2.626-2.673"/></defs><g transform="matrix(.18477 0 0 -.18477 -41.025 90.032)" clip-path="url(#A)"><g fill="none" stroke-miterlimit="10"><path d="M540.57 338.11c13.473 12.421 8.55 33.522 8.55 33.522 36.283 32.199 12.853 47.231-7.537 109.63-4.73-13.199-8.493-22.967-11.319-29.242-14.364 1.787-46.244 1.79-60.616 0-2.825 6.275-6.59 16.043-11.318 29.242-20.338-62.232-43.692-77.708-7.821-109.74-6.585-9.601-14.105-21.342-22.58-35.959-19.802 1.25-39.452-10.383-58.933-34.905" stroke="#000" stroke-linecap="round" stroke-linejoin="round" stroke-width="6.282"/><g stroke="#1d1d1b" stroke-width="8.375"><path d="M226.61 172.53l-.393 166.04c-.02 8.17 8.329 13.693 15.841 10.482l151.15-64.616c4.176-1.783 6.89-5.884 6.901-10.426l.392-166.04c.019-8.169-8.328-13.693-15.84-10.482l-151.15 64.613c-4.176 1.786-6.89 5.887-6.901 10.429zm217.12-65.79l-20.178-9.259c-7.512-3.211-15.861 2.313-15.841 10.483l.393 166.04c.011 4.542 2.725 8.643 6.901 10.429l151.15 64.613c7.512 3.211 15.859-2.312 15.841-10.482l-.12-50.715"/></g></g><g fill="#1d1d1b"><path d="M454.53 265.87v-.568l-3.215-.315v.82c0 1.259-.599 1.921-1.702 1.921s-1.702-.662-1.702-1.921v-.284c0-1.293.568-2.395 2.805-4.286 3.057-2.585 4.192-4.413 4.192-7.059v-1.104c0-3.151-1.859-4.947-5.169-4.947s-5.168 1.796-5.168 4.947v1.482l3.214.315v-1.576c0-1.386.631-2.08 1.891-2.08s1.891.694 1.891 2.08v.725c0 1.386-.662 2.49-2.899 4.381-3.057 2.584-4.097 4.411-4.097 6.995v.474c0 3.151 1.796 4.947 4.979 4.947s4.98-1.796 4.98-4.947m17.4-.35v-1.986l-3.214-.158v1.797c0 1.765-.662 2.552-1.89 2.552s-1.892-.787-1.892-2.237v-12.039c0-1.45.662-2.238 1.892-2.238s1.89.788 1.89 2.554v2.457l3.214-.157v-2.647c0-3.341-1.922-5.294-5.199-5.294-3.246 0-5.138 1.953-5.138 5.294v12.102c0 3.34 1.892 5.294 5.138 5.294 3.277 0 5.199-1.954 5.199-5.294m15.04-17.08v9.613h-3.971v-9.613h-3.341v22.062h3.341v-9.298h3.971v9.298h3.341V248.44zm14.85 12.42h1.354c1.607 0 2.333.852 2.333 2.711v1.134c0 1.859-.726 2.711-2.333 2.711h-1.354zm1.543-3.088h-1.543v-9.329h-3.342v22.062h4.822c3.593 0 5.547-1.955 5.547-5.579v-1.576c0-2.333-.819-3.97-2.364-4.853l3.058-10.054h-3.53zm19.327 17.238h2.963v-3.025h-2.963zm-2.868-9.802v-11.47c0-1.64.725-2.522 2.049-2.522s2.048.882 2.048 2.522v11.47c0 1.64-.725 2.522-2.048 2.522s-2.049-.882-2.049-2.522m-1.733 9.802h2.962v-3.025h-2.962zm9.172-9.769v-11.536c0-3.465-2.05-5.577-5.39-5.577s-5.39 2.112-5.39 5.577v11.536c0 3.466 2.048 5.578 5.39 5.578s5.39-2.112 5.39-5.578m11.479-13.711h1.323c1.608 0 2.332.851 2.332 2.71v10.463c0 1.859-.724 2.711-2.332 2.711h-1.323zm1.45 18.973c3.592 0 5.546-1.954 5.546-5.578V254.02c0-3.625-1.954-5.579-5.546-5.579h-4.791v22.062zm13.68-.003h3.341v-22.062h-3.341zm19.42-22.06l-4.381 14.623h-.062V248.44h-3.151v22.062h3.718l3.94-13.143h.063v13.143h3.151V248.44zm21.88 17.08v-1.513l-3.214-.157v1.323c0 1.765-.662 2.552-1.954 2.552s-1.954-.787-1.954-2.237v-12.039c0-1.45.63-2.238 1.922-2.238s1.923.788 1.923 2.554v3.781h-1.891v3.089h5.168v-7.217c0-3.341-1.922-5.294-5.263-5.294-3.309 0-5.199 1.953-5.199 5.294v12.102c0 3.34 1.89 5.294 5.199 5.294 3.341 0 5.263-1.954 5.263-5.294m11.38 1.89v-6.241h4.886v-3.088h-4.886v-6.555h6.052v-3.089h-9.392v22.062h9.392v-3.089zm16.8-6.55h1.355c1.607 0 2.333.852 2.333 2.711v1.134c0 1.859-.726 2.711-2.333 2.711h-1.355zm1.544-3.088h-1.544v-9.329h-3.342v22.062h4.822c3.593 0 5.547-1.955 5.547-5.579v-1.576c0-2.333-.819-3.97-2.363-4.853l3.057-10.054h-3.53zm22.416 8.098v-.568l-3.215-.315v.82c0 1.259-.598 1.921-1.702 1.921s-1.7-.662-1.7-1.921v-.284c0-1.293.566-2.395 2.804-4.286 3.057-2.585 4.191-4.413 4.191-7.059v-1.104c0-3.151-1.859-4.947-5.168-4.947s-5.169 1.796-5.169 4.947v1.482l3.215.315v-1.576c0-1.386.631-2.08 1.891-2.08s1.89.694 1.89 2.08v.725c0 1.386-.661 2.49-2.898 4.381-3.058 2.584-4.098 4.411-4.098 6.995v.474c0 3.151 1.797 4.947 4.98 4.947s4.979-1.796 4.979-4.947"/></g><g fill="#a72f2c"><path d="M468.74 144.62h7.025c7.789 0 11.303 4.124 11.303 13.135v5.956c0 9.47-3.514 13.746-12.066 13.746h-6.262zm0 47.805h5.04c7.79 0 10.996 3.97 10.996 12.982v3.512c0 8.706-3.206 12.678-10.232 12.678h-5.804zm6.415 44.138c16.8 0 25.812-9.468 25.812-27.033v-1.985c0-11.912-3.514-18.939-12.067-21.841v-.306c10.08-3.053 14.357-10.996 14.357-25.048v-3.664c0-17.564-9.469-27.034-26.88-27.034h-23.826v106.91zm63.765-25.653v-55.595c0-7.941 3.512-12.218 9.928-12.218s9.926 4.277 9.926 12.218v55.595c0 7.941-3.512 12.218-9.926 12.218s-9.928-4.277-9.928-12.218m36.044.152v-55.899c0-16.8-9.928-27.032-26.116-27.032s-26.118 10.232-26.118 27.032v55.899c0 16.8 9.927 27.034 26.118 27.034s26.116-10.234 26.116-27.034m75.076-81.402h-17.106l-13.288 37.572h-.305l-12.524-37.572h-16.8l20.465 55.44-19.243 51.471h17.106l11.912-34.058h.306l11.455 34.058h16.799l-19.244-52.081z"/></g><g fill="#1d1d1b"><path d="M454.24 110.15h.732c.814 0 1.177.431 1.177 1.368v.621c0 .988-.363 1.431-1.258 1.431h-.651zm0 4.979h.527c.811 0 1.143.415 1.143 1.352v.366c0 .907-.332 1.32-1.065 1.32h-.605zm.671 4.595c1.747 0 2.687-.983 2.687-2.814v-.205c0-1.242-.366-1.974-1.256-2.276v-.03c1.048-.32 1.496-1.145 1.496-2.61v-.382c0-1.828-.988-2.816-2.8-2.816h-2.484v11.133zm7.389-11.134h-1.686v5.044l-2.336 6.089h1.781l1.415-3.942h.031l1.354 3.942h1.747l-2.306-6.108zm8.12 9.58v-3.147h2.467v-1.561h-2.467v-3.309h3.054v-1.558h-4.74v11.133h4.74v-1.558zm9.33-7.99v-1.593h-4.5v11.133h1.686v-9.54zm3.11 7.99v-3.147h2.468v-1.561h-2.468v-3.309h3.054v-1.558h-4.74v11.133h4.74v-1.558z"/><use xlink:href="#B"/><path d="M497.24 118.13v-9.544h-1.688v9.544h-1.797v1.589h5.282v-1.589zm4.73-3.27h.687c.809 0 1.175.432 1.175 1.369v.574c0 .937-.366 1.366-1.175 1.366h-.687zm.779-1.558h-.779v-4.709h-1.685v11.133h2.433c1.813 0 2.8-.983 2.8-2.814v-.795c0-1.176-.413-2.005-1.192-2.448l1.542-5.076h-1.781zm6.181 3.748v-5.791c0-.826.366-1.272 1.033-1.272s1.034.446 1.034 1.272v5.791c0 .826-.366 1.272-1.034 1.272s-1.033-.446-1.033-1.272m3.756.016v-5.823c0-1.751-1.037-2.815-2.723-2.815s-2.719 1.064-2.719 2.815v5.823c0 1.747 1.035 2.815 2.719 2.815s2.723-1.068 2.723-2.815m4.674 1.064v-9.544h-1.688v9.544h-1.797v1.589h5.282v-1.589zm4.89.04v-3.147h2.467v-1.561h-2.467v-3.309h3.054v-1.558h-4.74v11.133h4.74v-1.558zm9.87-.96v-1.002l-1.623-.081v.906c0 .891-.335 1.291-.956 1.291s-.952-.4-.952-1.13v-6.076c0-.733.335-1.13.952-1.13s.956.397.956 1.288v1.242l1.623-.081v-1.334c0-1.686-.971-2.673-2.625-2.673-1.639 0-2.592.987-2.592 2.673v6.107c0 1.686.953 2.673 2.592 2.673 1.654 0 2.625-.987 2.625-2.673m5.46-8.62v4.852h-2.005v-4.852h-1.685v11.133h1.685v-4.69h2.005v4.69h1.686V108.59zm7.68 0l-2.21 7.381h-.031v-7.381h-1.592v11.133h1.877l1.986-6.632h.034v6.632h1.59V108.59zm3.81 11.13h1.686v-11.133h-1.686zm8.33-2.33v-.285l-1.621-.158v.412c0 .636-.304.971-.859.971s-.86-.335-.86-.971v-.143c0-.651.285-1.21 1.415-2.163 1.543-1.304 2.117-2.228 2.117-3.562v-.56c0-1.589-.94-2.495-2.61-2.495s-2.607.906-2.607 2.495v.748l1.623.158v-.794c0-.698.316-1.049.953-1.049s.956.351.956 1.049v.367c0 .701-.335 1.256-1.465 2.209-1.543 1.307-2.067 2.229-2.067 3.533v.238c0 1.593.906 2.499 2.513 2.499s2.512-.906 2.512-2.499m6.66-.18v-1.002l-1.623-.081v.906c0 .891-.336 1.291-.956 1.291s-.953-.4-.953-1.13v-6.076c0-.733.335-1.13.953-1.13s.956.397.956 1.288v1.242l1.623-.081v-1.334c0-1.686-.972-2.673-2.626-2.673-1.639 0-2.592.987-2.592 2.673v6.107c0 1.686.953 2.673 2.592 2.673 1.654 0 2.626-.987 2.626-2.673m5.46-8.62v4.852h-2.005v-4.852h-1.685v11.133h1.685v-4.69h2.005v4.69h1.685V108.59zm5.53 9.58v-3.147h2.468v-1.561h-2.468v-3.309h3.054v-1.558h-4.74v11.133h4.74v-1.558zm9.31-9.58l-1.877 11.133h1.719l1.258-8.491h.03l1.242 8.491h1.685l-1.877-11.133zm7.29 9.58v-3.147h2.468v-1.561h-2.468v-3.309h3.055v-1.558h-4.741v11.133h4.741v-1.558zm6.36-3.31h.683c.813 0 1.179.432 1.179 1.369v.574c0 .937-.366 1.366-1.179 1.366h-.683zm.779-1.558h-.779v-4.709h-1.686v11.133h2.434c1.813 0 2.8-.983 2.8-2.814v-.795c0-1.176-.413-2.005-1.193-2.448l1.543-5.076h-1.781zm6.371 4.868v-3.147h2.468v-1.561h-2.468v-3.309h3.055v-1.558h-4.74v11.133h4.74v-1.558zm6.51 0v-3.147h2.468v-1.561h-2.468v-3.309h3.055v-1.558h-4.74v11.133h4.74v-1.558zm8.66-9.58l-2.21 7.381h-.031v-7.381h-1.592v11.133h1.878l1.989-6.632h.031v6.632h1.589V108.59zm3.81 11.13h1.686v-11.133h-1.686zm8.95-2.51v-.764l-1.62-.08v.667c0 .891-.335 1.291-.986 1.291s-.988-.4-.988-1.13v-6.076c0-.733.317-1.13.972-1.13s.968.397.968 1.288v1.909h-.952v1.558h2.606v-3.64c0-1.686-.968-2.673-2.656-2.673-1.67 0-2.623.987-2.623 2.673v6.107c0 1.686.953 2.673 2.623 2.673 1.688 0 2.656-.987 2.656-2.673m1.94 2.51h1.686v-11.133h-1.686zm7.67-11.13l-2.21 7.381h-.031v-7.381h-1.592v11.133h1.878l1.986-6.632h.034v6.632h1.589V108.59zm8.92 8.62v-.764l-1.623-.08v.667c0 .891-.332 1.291-.984 1.291s-.987-.4-.987-1.13v-6.076c0-.733.32-1.13.971-1.13s.969.397.969 1.288v1.909h-.953v1.558h2.607v-3.64c0-1.686-.969-2.673-2.657-2.673-1.669 0-2.622.987-2.622 2.673v6.107c0 1.686.953 2.673 2.622 2.673 1.688 0 2.657-.987 2.657-2.673"/></g><g stroke-linecap="round" stroke-linejoin="round" stroke-miterlimit="10"><path d="M272.06 336.74l132.19-55.579 46.4 20.955m0 0c-19.481 24.521-42.934 39.294-62.737 38.045-8.475 14.618-15.994 26.358-22.58 35.959 35.871 32.027 12.518 47.504-7.821 109.74-4.728-13.2-8.492-22.969-11.318-29.243-14.372 1.791-46.252 1.787-60.616 0-2.826 6.274-6.589 16.043-11.318 29.243-20.391-62.4-43.821-77.432-7.538-109.63.759-14.377 2.632-27.465 5.336-39.485" stroke="#1d1d1b" stroke-width="8.375"/><g fill="none" stroke="#fff" stroke-width="4.188"><path d="M294.86 427.67l-16.925-12.518"/><path d="M278.27 428.1l16.256-13.375"/></g></g></g></svg>