<?xml version="1.0" encoding="UTF-8" standalone="no"?>
<!-- Created with Inkscape (http://www.inkscape.org/) -->

<svg
   width="512"
   height="474"
   viewBox="0 0 135.46666 125.41249"
   version="1.1"
   id="svg5"
   sodipodi:docname="logo.svg"
   inkscape:version="1.1 (c68e22c387, 2021-05-23)"
   xmlns:inkscape="http://www.inkscape.org/namespaces/inkscape"
   xmlns:sodipodi="http://sodipodi.sourceforge.net/DTD/sodipodi-0.dtd"
   xmlns="http://www.w3.org/2000/svg"
   xmlns:svg="http://www.w3.org/2000/svg">
  <sodipodi:namedview
     id="namedview7"
     pagecolor="#ffffff"
     bordercolor="#999999"
     borderopacity="1"
     inkscape:pageshadow="0"
     inkscape:pageopacity="0"
     inkscape:pagecheckerboard="0"
     inkscape:document-units="mm"
     showgrid="false"
     width="160mm"
     units="px"
     height="512px"
     inkscape:zoom="1.1830527"
     inkscape:cx="43.531449"
     inkscape:cy="181.3106"
     inkscape:window-width="1834"
     inkscape:window-height="1061"
     inkscape:window-x="-7"
     inkscape:window-y="-7"
     inkscape:window-maximized="1"
     inkscape:current-layer="layer1" />
  <defs
     id="defs2">
    <clipPath
       clipPathUnits="userSpaceOnUse"
       id="clipPath838">
      <path
         d="M 0,595.276 H 841.89 V 0 H 0 Z"
         id="path836" />
    </clipPath>
  </defs>
  <g
     inkscape:label="Layer 1"
     inkscape:groupmode="layer"
     id="layer1">
    <g
       id="g834"
       clip-path="url(#clipPath838)"
       transform="matrix(0.31103008,0,0,-0.31103008,-68.132516,152.85395)">
      <g
         id="g840"
         transform="translate(540.5654,338.1067)"
         inkscape:label="cat_white">
        <path
           d="m 0,0 c 13.473,12.421 8.55,33.522 8.55,33.522 36.283,32.199 12.853,47.231 -7.537,109.63 -4.73,-13.199 -8.493,-22.967 -11.319,-29.242 -14.364,1.787 -46.244,1.79 -60.616,0 -2.825,6.275 -6.59,16.043 -11.318,29.242 -20.338,-62.232 -43.692,-77.708 -7.821,-109.735 -6.585,-9.601 -14.105,-21.342 -22.58,-35.959 -19.802,1.25 -39.452,-10.383 -58.933,-34.905"
           style="fill:none;stroke:#000000;stroke-width:6.282;stroke-linecap:round;stroke-linejoin:round;stroke-miterlimit:10;stroke-dasharray:none;stroke-opacity:1"
           id="path842" />
      </g>
      <g
         id="g844"
         transform="translate(450.6494,302.1169)"
         style="display:inline" />
      <g
         id="g848"
         transform="translate(226.6123,172.5275)"
         inkscape:label="box_left">
        <path
           d="m 0,0 -0.393,166.037 c -0.02,8.17 8.329,13.693 15.841,10.482 l 151.15,-64.616 c 4.176,-1.783 6.89,-5.884 6.901,-10.426 l 0.392,-166.037 c 0.019,-8.169 -8.328,-13.693 -15.84,-10.482 L 6.901,-10.429 C 2.725,-8.643 0.011,-4.542 0,0 Z"
           style="fill:none;stroke:#1d1d1b;stroke-width:8.375;stroke-linecap:butt;stroke-linejoin:miter;stroke-miterlimit:10;stroke-dasharray:none;stroke-opacity:1"
           id="path850" />
      </g>
      <g
         id="g852"
         transform="translate(443.7324,106.7443)"
         style="display:inline"
         inkscape:label="box_right">
        <path
           d="m 0,0 -20.178,-9.259 c -7.512,-3.211 -15.861,2.313 -15.841,10.483 l 0.393,166.036 c 0.011,4.542 2.725,8.643 6.901,10.429 l 151.15,64.613 c 7.512,3.211 15.859,-2.312 15.841,-10.482 l -0.12,-50.715"
           style="fill:none;stroke:#1d1d1b;stroke-width:8.375;stroke-linecap:butt;stroke-linejoin:miter;stroke-miterlimit:10;stroke-dasharray:none;stroke-opacity:1"
           id="path854" />
      </g>
      <g
         id="g2454"
         inkscape:label="text">
        <g
           id="g864"
           transform="translate(454.5322,265.8674)">
          <path
             d="m 0,0 v -0.568 l -3.215,-0.315 v 0.82 c 0,1.259 -0.599,1.921 -1.702,1.921 -1.103,0 -1.702,-0.662 -1.702,-1.921 v -0.284 c 0,-1.293 0.568,-2.395 2.805,-4.286 3.057,-2.585 4.192,-4.413 4.192,-7.059 v -1.104 c 0,-3.151 -1.859,-4.947 -5.169,-4.947 -3.31,0 -5.168,1.796 -5.168,4.947 v 1.482 l 3.214,0.315 v -1.576 c 0,-1.386 0.631,-2.08 1.891,-2.08 1.26,0 1.891,0.694 1.891,2.08 v 0.725 c 0,1.386 -0.662,2.49 -2.899,4.381 -3.057,2.584 -4.097,4.411 -4.097,6.995 V 0 c 0,3.151 1.796,4.947 4.979,4.947 C -1.797,4.947 0,3.151 0,0"
             style="fill:#1d1d1b;fill-opacity:1;fill-rule:nonzero;stroke:none"
             id="path866" />
        </g>
        <g
           id="g868"
           transform="translate(471.9326,265.5207)">
          <path
             d="m 0,0 v -1.986 l -3.214,-0.158 v 1.797 c 0,1.765 -0.662,2.552 -1.89,2.552 -1.23,0 -1.892,-0.787 -1.892,-2.237 v -12.039 c 0,-1.45 0.662,-2.238 1.892,-2.238 1.228,0 1.89,0.788 1.89,2.554 v 2.457 L 0,-9.455 v -2.647 c 0,-3.341 -1.922,-5.294 -5.199,-5.294 -3.246,0 -5.138,1.953 -5.138,5.294 V 0 c 0,3.34 1.892,5.294 5.138,5.294 C -1.922,5.294 0,3.34 0,0"
             style="fill:#1d1d1b;fill-opacity:1;fill-rule:nonzero;stroke:none"
             id="path870" />
        </g>
        <g
           id="g872"
           transform="translate(486.9727,248.4387)">
          <path
             d="M 0,0 V 9.613 H -3.971 V 0 h -3.341 v 22.062 h 3.341 V 12.764 H 0 v 9.298 H 3.341 V 0 Z"
             style="fill:#1d1d1b;fill-opacity:1;fill-rule:nonzero;stroke:none"
             id="path874" />
        </g>
        <g
           id="g876"
           transform="translate(501.8223,260.8557)">
          <path
             d="m 0,0 h 1.354 c 1.607,0 2.333,0.852 2.333,2.711 v 1.134 c 0,1.859 -0.726,2.711 -2.333,2.711 L 0,6.556 Z M 1.543,-3.088 H 0 v -9.329 H -3.342 V 9.645 H 1.48 c 3.593,0 5.547,-1.955 5.547,-5.579 V 2.49 c 0,-2.333 -0.819,-3.97 -2.364,-4.853 l 3.058,-10.054 h -3.53 z"
             style="fill:#1d1d1b;fill-opacity:1;fill-rule:nonzero;stroke:none"
             id="path878" />
        </g>
        <path
           d="m 522.691,275.006 h 2.963 v -3.025 h -2.963 z m -2.868,-9.802 v -11.47 c 0,-1.64 0.725,-2.522 2.049,-2.522 1.323,0 2.048,0.882 2.048,2.522 v 11.47 c 0,1.64 -0.725,2.522 -2.048,2.522 -1.324,0 -2.049,-0.882 -2.049,-2.522 m -1.733,9.802 h 2.962 v -3.025 h -2.962 z m 9.172,-9.769 v -11.536 c 0,-3.465 -2.05,-5.577 -5.39,-5.577 -3.342,0 -5.39,2.112 -5.39,5.577 v 11.536 c 0,3.466 2.048,5.578 5.39,5.578 3.34,0 5.39,-2.112 5.39,-5.578"
           style="fill:#1d1d1b;fill-opacity:1;fill-rule:nonzero;stroke:none"
           id="path880" />
        <g
           id="g882"
           transform="translate(538.7383,251.5275)">
          <path
             d="m 0,0 h 1.323 c 1.608,0 2.332,0.851 2.332,2.71 v 10.463 c 0,1.859 -0.724,2.711 -2.332,2.711 H 0 Z m 1.45,18.973 c 3.592,0 5.546,-1.954 5.546,-5.578 V 2.49 c 0,-3.625 -1.954,-5.579 -5.546,-5.579 h -4.791 v 22.062 z"
             style="fill:#1d1d1b;fill-opacity:1;fill-rule:nonzero;stroke:none"
             id="path884" />
        </g>
        <path
           d="m 553.871,270.5 h 3.341 v -22.062 h -3.341 z"
           style="fill:#1d1d1b;fill-opacity:1;fill-rule:nonzero;stroke:none"
           id="path886" />
        <g
           id="g888"
           transform="translate(573.2891,248.4387)">
          <path
             d="M 0,0 -4.381,14.623 H -4.443 V 0 h -3.151 v 22.062 h 3.718 L 0.064,8.919 H 0.127 V 22.062 H 3.278 V 0 Z"
             style="fill:#1d1d1b;fill-opacity:1;fill-rule:nonzero;stroke:none"
             id="path890" />
        </g>
        <g
           id="g892"
           transform="translate(595.167,265.5207)">
          <path
             d="M 0,0 V -1.513 L -3.214,-1.67 v 1.323 c 0,1.765 -0.662,2.552 -1.954,2.552 -1.292,0 -1.954,-0.787 -1.954,-2.237 v -12.039 c 0,-1.45 0.63,-2.238 1.922,-2.238 1.293,0 1.923,0.788 1.923,2.554 v 3.781 h -1.891 v 3.089 H 0 v -7.217 c 0,-3.341 -1.922,-5.294 -5.263,-5.294 -3.309,0 -5.199,1.953 -5.199,5.294 V 0 c 0,3.34 1.89,5.294 5.199,5.294 C -1.922,5.294 0,3.34 0,0"
             style="fill:#1d1d1b;fill-opacity:1;fill-rule:nonzero;stroke:none"
             id="path894" />
        </g>
        <g
           id="g896"
           transform="translate(606.5488,267.4113)">
          <path
             d="M 0,0 V -6.241 H 4.886 V -9.329 H 0 v -6.555 h 6.052 v -3.089 H -3.34 V 3.089 H 6.052 V 0 Z"
             style="fill:#1d1d1b;fill-opacity:1;fill-rule:nonzero;stroke:none"
             id="path898" />
        </g>
        <g
           id="g900"
           transform="translate(623.3525,260.8557)">
          <path
             d="m 0,0 h 1.355 c 1.607,0 2.333,0.852 2.333,2.711 v 1.134 c 0,1.859 -0.726,2.711 -2.333,2.711 L 0,6.556 Z M 1.544,-3.088 H 0 v -9.329 H -3.342 V 9.645 H 1.48 c 3.593,0 5.547,-1.955 5.547,-5.579 V 2.49 c 0,-2.333 -0.819,-3.97 -2.363,-4.853 l 3.057,-10.054 h -3.53 z"
             style="fill:#1d1d1b;fill-opacity:1;fill-rule:nonzero;stroke:none"
             id="path902" />
        </g>
        <g
           id="g904"
           transform="translate(647.3086,265.8674)">
          <path
             d="m 0,0 v -0.568 l -3.215,-0.315 v 0.82 c 0,1.259 -0.598,1.921 -1.702,1.921 -1.103,0 -1.7,-0.662 -1.7,-1.921 v -0.284 c 0,-1.293 0.566,-2.395 2.804,-4.286 3.057,-2.585 4.191,-4.413 4.191,-7.059 v -1.104 c 0,-3.151 -1.859,-4.947 -5.168,-4.947 -3.31,0 -5.169,1.796 -5.169,4.947 v 1.482 l 3.215,0.315 v -1.576 c 0,-1.386 0.631,-2.08 1.891,-2.08 1.261,0 1.89,0.694 1.89,2.08 v 0.725 c 0,1.386 -0.661,2.49 -2.898,4.381 -3.058,2.584 -4.098,4.411 -4.098,6.995 V 0 c 0,3.151 1.797,4.947 4.98,4.947 C -1.797,4.947 0,3.151 0,0"
             style="fill:#1d1d1b;fill-opacity:1;fill-rule:nonzero;stroke:none"
             id="path906" />
        </g>
        <g
           id="g908"
           transform="translate(468.7432,144.6232)">
          <path
             d="m 0,0 h 7.025 c 7.789,0 11.303,4.124 11.303,13.135 v 5.956 c 0,9.47 -3.514,13.746 -12.066,13.746 H 0 Z m 0,47.805 h 5.04 c 7.79,0 10.996,3.97 10.996,12.982 v 3.512 c 0,8.706 -3.206,12.678 -10.232,12.678 H 0 Z m 6.415,44.138 c 16.8,0 25.812,-9.468 25.812,-27.033 V 62.925 C 32.227,51.013 28.713,43.986 20.16,41.084 V 40.778 C 30.24,37.725 34.517,29.782 34.517,15.73 v -3.664 c 0,-17.564 -9.469,-27.034 -26.88,-27.034 H -16.189 V 91.943 Z"
             style="fill:#a72f2c;fill-opacity:1;fill-rule:nonzero;stroke:none"
             id="path910" />
        </g>
        <g
           id="g912"
           transform="translate(538.9238,210.9084)">
          <path
             d="m 0,0 v -55.595 c 0,-7.941 3.512,-12.218 9.928,-12.218 6.414,0 9.926,4.277 9.926,12.218 V 0 c 0,7.941 -3.512,12.218 -9.926,12.218 C 3.512,12.218 0,7.941 0,0 m 36.044,0.152 v -55.899 c 0,-16.8 -9.928,-27.032 -26.116,-27.032 -16.191,0 -26.118,10.232 -26.118,27.032 V 0.152 c 0,16.8 9.927,27.034 26.118,27.034 16.188,0 26.116,-10.234 26.116,-27.034"
             style="fill:#a72f2c;fill-opacity:1;fill-rule:nonzero;stroke:none"
             id="path914" />
        </g>
        <g
           id="g916"
           transform="translate(650.0381,129.6555)">
          <path
             d="m 0,0 h -17.106 l -13.288,37.572 h -0.305 L -43.223,0 h -16.8 l 20.465,55.44 -19.243,51.471 h 17.106 l 11.912,-34.058 h 0.306 l 11.455,34.058 H -1.223 L -20.467,54.83 Z"
             style="fill:#a72f2c;fill-opacity:1;fill-rule:nonzero;stroke:none"
             id="path918" />
        </g>
        <g
           id="g920"
           transform="translate(454.2393,110.1486)">
          <path
             d="M 0,0 H 0.732 C 1.546,0 1.909,0.431 1.909,1.368 V 1.989 C 1.909,2.977 1.546,3.42 0.651,3.42 H 0 Z m 0,4.979 h 0.527 c 0.811,0 1.143,0.415 1.143,1.352 v 0.366 c 0,0.907 -0.332,1.32 -1.065,1.32 H 0 Z m 0.671,4.595 c 1.747,0 2.687,-0.983 2.687,-2.814 V 6.555 C 3.358,5.313 2.992,4.581 2.102,4.279 V 4.249 C 3.15,3.929 3.598,3.104 3.598,1.639 V 1.257 c 0,-1.828 -0.988,-2.816 -2.8,-2.816 H -1.686 V 9.574 Z"
             style="fill:#1d1d1b;fill-opacity:1;fill-rule:nonzero;stroke:none"
             id="path922" />
        </g>
        <g
           id="g924"
           transform="translate(462.2998,108.59)">
          <path
             d="m 0,0 h -1.686 v 5.044 l -2.336,6.089 h 1.781 l 1.415,-3.942 h 0.031 l 1.354,3.942 H 2.306 L 0,5.025 Z"
             style="fill:#1d1d1b;fill-opacity:1;fill-rule:nonzero;stroke:none"
             id="path926" />
        </g>
        <g
           id="g928"
           transform="translate(470.416,118.1652)">
          <path
             d="M 0,0 V -3.147 H 2.467 V -4.708 H 0 v -3.309 h 3.054 v -1.558 h -4.74 V 1.558 h 4.74 V 0 Z"
             style="fill:#1d1d1b;fill-opacity:1;fill-rule:nonzero;stroke:none"
             id="path930" />
        </g>
        <g
           id="g932"
           transform="translate(479.7451,110.1828)">
          <path
             d="M 0,0 V -1.593 H -4.5 V 9.54 h 1.686 V 0 Z"
             style="fill:#1d1d1b;fill-opacity:1;fill-rule:nonzero;stroke:none"
             id="path934" />
        </g>
        <g
           id="g936"
           transform="translate(482.8555,118.1652)">
          <path
             d="M 0,0 V -3.147 H 2.468 V -4.708 H 0 v -3.309 h 3.054 v -1.558 h -4.74 V 1.558 h 4.74 V 0 Z"
             style="fill:#1d1d1b;fill-opacity:1;fill-rule:nonzero;stroke:none"
             id="path938" />
        </g>
        <g
           id="g940"
           transform="translate(492.7285,117.2121)">
          <path
             d="m 0,0 v -1.002 l -1.623,-0.081 v 0.906 c 0,0.891 -0.336,1.291 -0.956,1.291 -0.618,0 -0.953,-0.4 -0.953,-1.13 v -6.076 c 0,-0.733 0.335,-1.13 0.953,-1.13 0.62,0 0.956,0.397 0.956,1.288 v 1.242 L 0,-4.773 v -1.334 c 0,-1.686 -0.972,-2.673 -2.626,-2.673 -1.639,0 -2.592,0.987 -2.592,2.673 V 0 c 0,1.686 0.953,2.673 2.592,2.673 C -0.972,2.673 0,1.686 0,0"
             style="fill:#1d1d1b;fill-opacity:1;fill-rule:nonzero;stroke:none"
             id="path942" />
        </g>
        <g
           id="g944"
           transform="translate(497.2383,118.134)">
          <path
             d="M 0,0 V -9.544 H -1.688 V 0 H -3.485 V 1.589 H 1.797 V 0 Z"
             style="fill:#1d1d1b;fill-opacity:1;fill-rule:nonzero;stroke:none"
             id="path946" />
        </g>
        <g
           id="g948"
           transform="translate(501.9707,114.8566)">
          <path
             d="m 0,0 h 0.687 c 0.809,0 1.175,0.432 1.175,1.369 v 0.574 c 0,0.937 -0.366,1.366 -1.175,1.366 H 0 Z M 0.779,-1.558 H 0 V -6.267 H -1.685 V 4.866 h 2.433 c 1.813,0 2.8,-0.983 2.8,-2.814 V 1.257 c 0,-1.176 -0.413,-2.005 -1.192,-2.448 L 3.898,-6.267 H 2.117 Z"
             style="fill:#1d1d1b;fill-opacity:1;fill-rule:nonzero;stroke:none"
             id="path950" />
        </g>
        <g
           id="g952"
           transform="translate(508.9326,117.0539)">
          <path
             d="m 0,0 v -5.791 c 0,-0.826 0.366,-1.272 1.033,-1.272 0.668,0 1.034,0.446 1.034,1.272 V 0 C 2.067,0.826 1.701,1.272 1.033,1.272 0.366,1.272 0,0.826 0,0 m 3.756,0.016 v -5.823 c 0,-1.751 -1.037,-2.815 -2.723,-2.815 -1.684,0 -2.719,1.064 -2.719,2.815 v 5.823 c 0,1.747 1.035,2.815 2.719,2.815 1.686,0 2.723,-1.068 2.723,-2.815"
             style="fill:#1d1d1b;fill-opacity:1;fill-rule:nonzero;stroke:none"
             id="path954" />
        </g>
        <g
           id="g956"
           transform="translate(517.3564,118.134)">
          <path
             d="M 0,0 V -9.544 H -1.688 V 0 H -3.485 V 1.589 H 1.797 V 0 Z"
             style="fill:#1d1d1b;fill-opacity:1;fill-rule:nonzero;stroke:none"
             id="path958" />
        </g>
        <g
           id="g960"
           transform="translate(522.248,118.1652)">
          <path
             d="M 0,0 V -3.147 H 2.467 V -4.708 H 0 v -3.309 h 3.054 v -1.558 h -4.74 V 1.558 h 4.74 V 0 Z"
             style="fill:#1d1d1b;fill-opacity:1;fill-rule:nonzero;stroke:none"
             id="path962" />
        </g>
        <g
           id="g964"
           transform="translate(532.1201,117.2121)">
          <path
             d="m 0,0 v -1.002 l -1.623,-0.081 v 0.906 c 0,0.891 -0.335,1.291 -0.956,1.291 -0.617,0 -0.952,-0.4 -0.952,-1.13 v -6.076 c 0,-0.733 0.335,-1.13 0.952,-1.13 0.621,0 0.956,0.397 0.956,1.288 v 1.242 L 0,-4.773 v -1.334 c 0,-1.686 -0.971,-2.673 -2.625,-2.673 -1.639,0 -2.592,0.987 -2.592,2.673 V 0 c 0,1.686 0.953,2.673 2.592,2.673 C -0.971,2.673 0,1.686 0,0"
             style="fill:#1d1d1b;fill-opacity:1;fill-rule:nonzero;stroke:none"
             id="path966" />
        </g>
        <g
           id="g968"
           transform="translate(537.583,108.59)">
          <path
             d="M 0,0 V 4.852 H -2.005 V 0 H -3.69 v 11.133 h 1.685 V 6.443 H 0 v 4.69 H 1.686 V 0 Z"
             style="fill:#1d1d1b;fill-opacity:1;fill-rule:nonzero;stroke:none"
             id="path970" />
        </g>
        <g
           id="g972"
           transform="translate(545.2588,108.59)">
          <path
             d="M 0,0 -2.21,7.381 H -2.241 V 0 h -1.592 v 11.133 h 1.877 L 0.03,4.501 h 0.034 v 6.632 h 1.59 V 0 Z"
             style="fill:#1d1d1b;fill-opacity:1;fill-rule:nonzero;stroke:none"
             id="path974" />
        </g>
        <path
           d="m 549.069,119.723 h 1.686 V 108.59 h -1.686 z"
           style="fill:#1d1d1b;fill-opacity:1;fill-rule:nonzero;stroke:none"
           id="path976" />
        <g
           id="g978"
           transform="translate(557.3975,117.3859)">
          <path
             d="m 0,0 v -0.285 l -1.621,-0.158 v 0.412 c 0,0.636 -0.304,0.971 -0.859,0.971 -0.559,0 -0.86,-0.335 -0.86,-0.971 v -0.143 c 0,-0.651 0.285,-1.21 1.415,-2.163 1.543,-1.304 2.117,-2.228 2.117,-3.562 v -0.56 c 0,-1.589 -0.94,-2.495 -2.61,-2.495 -1.67,0 -2.607,0.906 -2.607,2.495 v 0.748 l 1.623,0.158 v -0.794 c 0,-0.698 0.316,-1.049 0.953,-1.049 0.636,0 0.956,0.351 0.956,1.049 v 0.367 c 0,0.701 -0.335,1.256 -1.465,2.209 -1.543,1.307 -2.067,2.229 -2.067,3.533 V 0 c 0,1.593 0.906,2.499 2.513,2.499 C -0.907,2.499 0,1.593 0,0"
             style="fill:#1d1d1b;fill-opacity:1;fill-rule:nonzero;stroke:none"
             id="path980" />
        </g>
        <g
           id="g982"
           transform="translate(564.0576,117.2121)">
          <path
             d="m 0,0 v -1.002 l -1.623,-0.081 v 0.906 c 0,0.891 -0.336,1.291 -0.956,1.291 -0.618,0 -0.953,-0.4 -0.953,-1.13 v -6.076 c 0,-0.733 0.335,-1.13 0.953,-1.13 0.62,0 0.956,0.397 0.956,1.288 v 1.242 L 0,-4.773 v -1.334 c 0,-1.686 -0.972,-2.673 -2.626,-2.673 -1.639,0 -2.592,0.987 -2.592,2.673 V 0 c 0,1.686 0.953,2.673 2.592,2.673 C -0.972,2.673 0,1.686 0,0"
             style="fill:#1d1d1b;fill-opacity:1;fill-rule:nonzero;stroke:none"
             id="path984" />
        </g>
        <g
           id="g986"
           transform="translate(569.5234,108.59)">
          <path
             d="M 0,0 V 4.852 H -2.005 V 0 H -3.69 v 11.133 h 1.685 V 6.443 H 0 v 4.69 H 1.685 V 0 Z"
             style="fill:#1d1d1b;fill-opacity:1;fill-rule:nonzero;stroke:none"
             id="path988" />
        </g>
        <g
           id="g990"
           transform="translate(575.0479,118.1652)">
          <path
             d="M 0,0 V -3.147 H 2.468 V -4.708 H 0 v -3.309 h 3.054 v -1.558 h -4.74 V 1.558 h 4.74 V 0 Z"
             style="fill:#1d1d1b;fill-opacity:1;fill-rule:nonzero;stroke:none"
             id="path992" />
        </g>
        <g
           id="g994"
           transform="translate(584.3584,108.59)">
          <path
             d="m 0,0 -1.877,11.133 h 1.719 L 1.1,2.642 h 0.03 l 1.242,8.491 H 4.057 L 2.18,0 Z"
             style="fill:#1d1d1b;fill-opacity:1;fill-rule:nonzero;stroke:none"
             id="path996" />
        </g>
        <g
           id="g998"
           transform="translate(591.6523,118.1652)">
          <path
             d="M 0,0 V -3.147 H 2.468 V -4.708 H 0 V -8.017 H 3.055 V -9.575 H -1.686 V 1.558 H 3.055 V 0 Z"
             style="fill:#1d1d1b;fill-opacity:1;fill-rule:nonzero;stroke:none"
             id="path1000" />
        </g>
        <g
           id="g1002"
           transform="translate(598.0088,114.8566)">
          <path
             d="m 0,0 h 0.683 c 0.813,0 1.179,0.432 1.179,1.369 v 0.574 c 0,0.937 -0.366,1.366 -1.179,1.366 H 0 Z M 0.779,-1.558 H 0 V -6.267 H -1.686 V 4.866 h 2.434 c 1.813,0 2.8,-0.983 2.8,-2.814 V 1.257 c 0,-1.176 -0.413,-2.005 -1.193,-2.448 L 3.898,-6.267 H 2.117 Z"
             style="fill:#1d1d1b;fill-opacity:1;fill-rule:nonzero;stroke:none"
             id="path1004" />
        </g>
        <g
           id="g1006"
           transform="translate(605.1562,118.1652)">
          <path
             d="M 0,0 V -3.147 H 2.468 V -4.708 H 0 v -3.309 h 3.055 v -1.558 h -4.74 V 1.558 h 4.74 V 0 Z"
             style="fill:#1d1d1b;fill-opacity:1;fill-rule:nonzero;stroke:none"
             id="path1008" />
        </g>
        <g
           id="g1010"
           transform="translate(611.6709,118.1652)">
          <path
             d="M 0,0 V -3.147 H 2.468 V -4.708 H 0 v -3.309 h 3.055 v -1.558 h -4.74 V 1.558 h 4.74 V 0 Z"
             style="fill:#1d1d1b;fill-opacity:1;fill-rule:nonzero;stroke:none"
             id="path1012" />
        </g>
        <g
           id="g1014"
           transform="translate(620.334,108.59)">
          <path
             d="M 0,0 -2.21,7.381 H -2.241 V 0 h -1.592 v 11.133 h 1.878 L 0.034,4.501 h 0.031 v 6.632 H 1.654 V 0 Z"
             style="fill:#1d1d1b;fill-opacity:1;fill-rule:nonzero;stroke:none"
             id="path1016" />
        </g>
        <path
           d="m 624.142,119.723 h 1.686 V 108.59 h -1.686 z"
           style="fill:#1d1d1b;fill-opacity:1;fill-rule:nonzero;stroke:none"
           id="path1018" />
        <g
           id="g1020"
           transform="translate(633.0928,117.2121)">
          <path
             d="m 0,0 v -0.764 l -1.62,-0.08 v 0.667 c 0,0.891 -0.335,1.291 -0.986,1.291 -0.653,0 -0.988,-0.4 -0.988,-1.13 v -6.076 c 0,-0.733 0.317,-1.13 0.972,-1.13 0.651,0 0.968,0.397 0.968,1.288 v 1.909 h -0.952 v 1.558 H 0 v -3.64 c 0,-1.686 -0.968,-2.673 -2.656,-2.673 -1.67,0 -2.623,0.987 -2.623,2.673 V 0 c 0,1.686 0.953,2.673 2.623,2.673 C -0.968,2.673 0,1.686 0,0"
             style="fill:#1d1d1b;fill-opacity:1;fill-rule:nonzero;stroke:none"
             id="path1022" />
        </g>
        <path
           d="m 635.026,119.723 h 1.686 V 108.59 h -1.686 z"
           style="display:inline;fill:#1d1d1b;fill-opacity:1;fill-rule:nonzero;stroke:none"
           id="path1024" />
        <g
           id="g1026"
           transform="translate(642.7021,108.59)"
           style="display:inline">
          <path
             d="M 0,0 -2.21,7.381 H -2.241 V 0 h -1.592 v 11.133 h 1.878 L 0.031,4.501 h 0.034 v 6.632 H 1.654 V 0 Z"
             style="fill:#1d1d1b;fill-opacity:1;fill-rule:nonzero;stroke:none"
             id="path1028" />
        </g>
        <g
           id="g1030"
           transform="translate(651.6191,117.2121)"
           style="display:inline">
          <path
             d="m 0,0 v -0.764 l -1.623,-0.08 v 0.667 c 0,0.891 -0.332,1.291 -0.984,1.291 -0.652,0 -0.987,-0.4 -0.987,-1.13 v -6.076 c 0,-0.733 0.32,-1.13 0.971,-1.13 0.652,0 0.969,0.397 0.969,1.288 v 1.909 h -0.953 v 1.558 H 0 v -3.64 c 0,-1.686 -0.969,-2.673 -2.657,-2.673 -1.669,0 -2.622,0.987 -2.622,2.673 V 0 c 0,1.686 0.953,2.673 2.622,2.673 C -0.969,2.673 0,1.686 0,0"
             style="display:inline;fill:#1d1d1b;fill-opacity:1;fill-rule:nonzero;stroke:none"
             id="path1032" />
        </g>
      </g>
      <g
         id="g1034"
         transform="translate(272.0576,336.7409)"
         style="display:inline"
         inkscape:label="cat_black">
        <path
           id="path1036"
           style="display:inline;fill:#000000;fill-opacity:1;fill-rule:nonzero;stroke:#1d1d1b;stroke-width:8.375;stroke-linecap:round;stroke-linejoin:round;stroke-miterlimit:10;stroke-dasharray:none;stroke-opacity:1"
           d="m 0,0 132.192,-55.579 46.4,20.955 m -2e-4,0 c -19.481,24.521 -42.934,39.294 -62.737,38.045 -8.475,14.618 -15.994,26.358 -22.58,35.959 35.871,32.027 12.518,47.504 -7.821,109.736 -4.728,-13.2 -8.492,-22.969 -11.318,-29.243 -14.372,1.791 -46.252,1.787 -60.616,0 -2.826,6.274 -6.589,16.043 -11.318,29.243 -20.391,-62.4 -43.821,-77.432 -7.538,-109.631 C -4.5772,25.108 -2.7042,12.02 -2e-4,0" />
      </g>
      <g
         id="g2460"
         inkscape:label="eye">
        <g
           id="g860"
           transform="translate(294.8618,427.6687)">
          <path
             d="M 0,0 -16.925,-12.518"
             style="fill:none;stroke:#ffffff;stroke-width:4.188;stroke-linecap:round;stroke-linejoin:round;stroke-miterlimit:10;stroke-dasharray:none;stroke-opacity:1"
             id="path862" />
        </g>
        <g
           id="g856"
           transform="translate(278.271,428.0974)">
          <path
             d="M 0,0 16.256,-13.375"
             style="fill:none;stroke:#ffffff;stroke-width:4.188;stroke-linecap:round;stroke-linejoin:round;stroke-miterlimit:10;stroke-dasharray:none;stroke-opacity:1"
             id="path858" />
        </g>
      </g>
      <g
         id="g2481"
         transform="translate(450.6494,302.1169)"
         style="display:inline" />
    </g>
  </g>
</svg>
