<?xml version="1.0" encoding="UTF-8"?>
<!-- Created with Inkscape (http://www.inkscape.org/) -->
<svg width="50" height="35.296" version="1.1" viewBox="0 0 13.229 9.3387" xmlns="http://www.w3.org/2000/svg">
 <g transform="translate(-47.938,-20.029)">
  <g fill="none" stroke="#007aff" stroke-width="1.1705">
   <path d="m48.351 23.17a8.7786 8.7786 0 0 1 6.1921-2.556 8.7786 8.7786 0 0 1 6.2102 2.574"/>
   <path d="m50.03 24.849a6.404 6.404 0 0 1 4.513-1.8604 6.404 6.404 0 0 1 4.5311 1.8785"/>
   <path d="m51.677 26.496a4.075 4.075 0 0 1 2.8662-1.1783 4.075 4.075 0 0 1 2.8841 1.1962"/>
  </g>
  <path d="m52.839 27.596 1.7255 1.7255 1.7005-1.7005a2.4361 2.4361 0 0 0-1.7262-0.71798 2.4361 2.4361 0 0 0-1.6998 0.69298z" fill="#007aff"/>
 </g>
 <g fill="#f00" stroke="#f00" stroke-width="1.5875px">
  <path d="m3.6343 0.9578c2.0016 2.0016 4.0016 4.0016 6 6"/>
  <path d="m9.6342 0.9578c-2 2-4 4-6 6"/>
 </g>
</svg>
